<?xml version="1.0" encoding="UTF-8"?>
<svg width="700pt" height="700pt" version="1.1" viewBox="0 0 700 700" xmlns="http://www.w3.org/2000/svg" xmlns:xlink="http://www.w3.org/1999/xlink">
 <defs>
  <symbol id="u" overflow="visible">
   <path d="m18.766-1.125c-0.96875 0.5-1.9805 0.875-3.0312 1.125-1.043 0.25781-2.1367 0.39062-3.2812 0.39062-3.3984 0-6.0898-0.94531-8.0781-2.8438-1.9922-1.9062-2.9844-4.4844-2.9844-7.7344 0-3.2578 0.99219-5.8359 2.9844-7.7344 1.9883-1.9062 4.6797-2.8594 8.0781-2.8594 1.1445 0 2.2383 0.13281 3.2812 0.39062 1.0508 0.25 2.0625 0.625 3.0312 1.125v4.2188c-0.98047-0.65625-1.9453-1.1406-2.8906-1.4531-0.94922-0.3125-1.9492-0.46875-3-0.46875-1.875 0-3.3516 0.60547-4.4219 1.8125-1.0742 1.1992-1.6094 2.8555-1.6094 4.9688 0 2.1055 0.53516 3.7617 1.6094 4.9688 1.0703 1.1992 2.5469 1.7969 4.4219 1.7969 1.0508 0 2.0508-0.14844 3-0.45312 0.94531-0.3125 1.9102-0.80078 2.8906-1.4688z"/>
  </symbol>
  <symbol id="c" overflow="visible">
   <path d="m13.734-11.141c-0.4375-0.19531-0.87109-0.34375-1.2969-0.4375-0.41797-0.10156-0.83984-0.15625-1.2656-0.15625-1.2617 0-2.2305 0.40625-2.9062 1.2188-0.67969 0.80469-1.0156 1.9531-1.0156 3.4531v7.0625h-4.8906v-15.312h4.8906v2.5156c0.625-1 1.3438-1.7266 2.1562-2.1875 0.82031-0.46875 1.8008-0.70312 2.9375-0.70312 0.16406 0 0.34375 0.011719 0.53125 0.03125 0.19531 0.011719 0.47656 0.039062 0.84375 0.078125z"/>
  </symbol>
  <symbol id="a" overflow="visible">
   <path d="m17.641-7.7031v1.4062h-11.453c0.125 1.1484 0.53906 2.0078 1.25 2.5781 0.70703 0.57422 1.7031 0.85938 2.9844 0.85938 1.0312 0 2.082-0.14844 3.1562-0.45312 1.082-0.3125 2.1914-0.77344 3.3281-1.3906v3.7656c-1.1562 0.4375-2.3125 0.76562-3.4688 0.98438-1.1562 0.22656-2.3125 0.34375-3.4688 0.34375-2.7734 0-4.9297-0.70312-6.4688-2.1094-1.5312-1.4062-2.2969-3.3789-2.2969-5.9219 0-2.5 0.75391-4.4609 2.2656-5.8906 1.5078-1.4375 3.582-2.1562 6.2188-2.1562 2.4062 0 4.332 0.73047 5.7812 2.1875 1.4453 1.4492 2.1719 3.3828 2.1719 5.7969zm-5.0312-1.625c0-0.92578-0.27344-1.6719-0.8125-2.2344-0.54297-0.57031-1.25-0.85938-2.125-0.85938-0.94922 0-1.7188 0.26562-2.3125 0.79688s-0.96484 1.2969-1.1094 2.2969z"/>
  </symbol>
  <symbol id="f" overflow="visible">
   <path d="m9.2188-6.8906c-1.0234 0-1.793 0.17188-2.3125 0.51562-0.51172 0.34375-0.76562 0.85547-0.76562 1.5312 0 0.625 0.20703 1.1172 0.625 1.4688 0.41406 0.34375 0.98828 0.51562 1.7188 0.51562 0.92578 0 1.7031-0.32812 2.3281-0.98438 0.63281-0.66406 0.95312-1.4922 0.95312-2.4844v-0.5625zm7.4688-1.8438v8.7344h-4.9219v-2.2656c-0.65625 0.92969-1.3984 1.6055-2.2188 2.0312-0.82422 0.41406-1.8242 0.625-3 0.625-1.5859 0-2.8711-0.45703-3.8594-1.375-0.99219-0.92578-1.4844-2.1289-1.4844-3.6094 0-1.7891 0.61328-3.1016 1.8438-3.9375 1.2383-0.84375 3.1797-1.2656 5.8281-1.2656h2.8906v-0.39062c0-0.76953-0.30859-1.332-0.92188-1.6875-0.61719-0.36328-1.5703-0.54688-2.8594-0.54688-1.0547 0-2.0312 0.10547-2.9375 0.3125-0.89844 0.21094-1.7305 0.52344-2.5 0.9375v-3.7344c1.0391-0.25 2.0859-0.44141 3.1406-0.57812 1.0625-0.13281 2.125-0.20312 3.1875-0.20312 2.7578 0 4.75 0.54688 5.9688 1.6406 1.2266 1.0859 1.8438 2.8555 1.8438 5.3125z"/>
  </symbol>
  <symbol id="b" overflow="visible">
   <path d="m7.7031-19.656v4.3438h5.0469v3.5h-5.0469v6.5c0 0.71094 0.14062 1.1875 0.42188 1.4375s0.83594 0.375 1.6719 0.375h2.5156v3.5h-4.1875c-1.9375 0-3.3125-0.39844-4.125-1.2031-0.80469-0.8125-1.2031-2.1797-1.2031-4.1094v-6.5h-2.4219v-3.5h2.4219v-4.3438z"/>
  </symbol>
  <symbol id="j" overflow="visible">
   <path d="m12.766-13.078v-8.2031h4.9219v21.281h-4.9219v-2.2188c-0.66797 0.90625-1.4062 1.5703-2.2188 1.9844s-1.7578 0.625-2.8281 0.625c-1.8867 0-3.4336-0.75-4.6406-2.25-1.2109-1.5-1.8125-3.4258-1.8125-5.7812 0-2.3633 0.60156-4.2969 1.8125-5.7969 1.207-1.5 2.7539-2.25 4.6406-2.25 1.0625 0 2 0.21484 2.8125 0.64062 0.82031 0.42969 1.5664 1.0859 2.2344 1.9688zm-3.2188 9.9219c1.0391 0 1.8359-0.37891 2.3906-1.1406 0.55078-0.76953 0.82812-1.8828 0.82812-3.3438 0-1.457-0.27734-2.5664-0.82812-3.3281-0.55469-0.76953-1.3516-1.1562-2.3906-1.1562-1.043 0-1.8398 0.38672-2.3906 1.1562-0.55469 0.76172-0.82812 1.8711-0.82812 3.3281 0 1.4609 0.27344 2.5742 0.82812 3.3438 0.55078 0.76172 1.3477 1.1406 2.3906 1.1406z"/>
  </symbol>
  <symbol id="i" overflow="visible">
   <path d="m10.5-3.1562c1.0508 0 1.8516-0.37891 2.4062-1.1406 0.55078-0.76953 0.82812-1.8828 0.82812-3.3438 0-1.457-0.27734-2.5664-0.82812-3.3281-0.55469-0.76953-1.3555-1.1562-2.4062-1.1562-1.0547 0-1.8594 0.38672-2.4219 1.1562-0.55469 0.77344-0.82812 1.8828-0.82812 3.3281 0 1.4492 0.27344 2.5586 0.82812 3.3281 0.5625 0.77344 1.3672 1.1562 2.4219 1.1562zm-3.25-9.9219c0.67578-0.88281 1.4219-1.5391 2.2344-1.9688 0.82031-0.42578 1.7656-0.64062 2.8281-0.64062 1.8945 0 3.4453 0.75 4.6562 2.25 1.207 1.5 1.8125 3.4336 1.8125 5.7969 0 2.3555-0.60547 4.2812-1.8125 5.7812-1.2109 1.5-2.7617 2.25-4.6562 2.25-1.0625 0-2.0078-0.21094-2.8281-0.625-0.8125-0.42578-1.5586-1.0859-2.2344-1.9844v2.2188h-4.8906v-21.281h4.8906z"/>
  </symbol>
  <symbol id="e" overflow="visible">
   <path d="m0.34375-15.312h4.8906l4.125 10.391 3.5-10.391h4.8906l-6.4375 16.766c-0.64844 1.6953-1.4023 2.8828-2.2656 3.5625-0.86719 0.6875-2 1.0312-3.4062 1.0312h-2.8438v-3.2188h1.5312c0.83203 0 1.4375-0.13672 1.8125-0.40625 0.38281-0.26172 0.67969-0.73047 0.89062-1.4062l0.14062-0.42188z"/>
  </symbol>
  <symbol id="h" overflow="visible">
   <path d="m2.5781-20.406h5.25v16.422h9.25v3.9844h-14.5z"/>
  </symbol>
  <symbol id="g" overflow="visible">
   <path d="m16.547-12.766c0.61328-0.94531 1.3477-1.6719 2.2031-2.1719 0.85156-0.5 1.7891-0.75 2.8125-0.75 1.7578 0 3.0977 0.54688 4.0156 1.6406 0.92578 1.0859 1.3906 2.6562 1.3906 4.7188v9.3281h-4.9219v-7.9844-0.35938c0.007813-0.13281 0.015625-0.32031 0.015625-0.5625 0-1.082-0.16406-1.8633-0.48438-2.3438-0.3125-0.48828-0.82422-0.73438-1.5312-0.73438-0.92969 0-1.6484 0.38672-2.1562 1.1562-0.51172 0.76172-0.77344 1.8672-0.78125 3.3125v7.5156h-4.9219v-7.9844c0-1.6953-0.14844-2.7852-0.4375-3.2656-0.29297-0.48828-0.8125-0.73438-1.5625-0.73438-0.9375 0-1.6641 0.38672-2.1719 1.1562-0.51172 0.76172-0.76562 1.8594-0.76562 3.2969v7.5312h-4.9219v-15.312h4.9219v2.2344c0.60156-0.86328 1.2891-1.5156 2.0625-1.9531 0.78125-0.4375 1.6406-0.65625 2.5781-0.65625 1.0625 0 2 0.25781 2.8125 0.76562 0.8125 0.51172 1.4258 1.2305 1.8438 2.1562z"/>
  </symbol>
  <symbol id="t" overflow="visible">
   <path d="m2.3594-15.312h4.8906v15.312h-4.8906zm0-5.9688h4.8906v4h-4.8906z"/>
  </symbol>
  <symbol id="s" overflow="visible">
   <path d="m2.3594-21.281h4.8906v11.594l5.625-5.625h5.6875l-7.4688 7.0312 8.0625 8.2812h-5.9375l-5.9688-6.3906v6.3906h-4.8906z"/>
  </symbol>
  <symbol id="r" overflow="visible">
   <path d="m12.422-21.281v3.2188h-2.7031c-0.6875 0-1.1719 0.125-1.4531 0.375-0.27344 0.25-0.40625 0.6875-0.40625 1.3125v1.0625h4.1875v3.5h-4.1875v11.812h-4.8906v-11.812h-2.4375v-3.5h2.4375v-1.0625c0-1.6641 0.46094-2.8984 1.3906-3.7031 0.92578-0.80078 2.3672-1.2031 4.3281-1.2031z"/>
  </symbol>
  <symbol id="d" overflow="visible">
   <path d="m9.6406-12.188c-1.0859 0-1.9141 0.39062-2.4844 1.1719-0.57422 0.78125-0.85938 1.9062-0.85938 3.375s0.28516 2.5938 0.85938 3.375c0.57031 0.77344 1.3984 1.1562 2.4844 1.1562 1.0625 0 1.875-0.38281 2.4375-1.1562 0.57031-0.78125 0.85938-1.9062 0.85938-3.375s-0.28906-2.5938-0.85938-3.375c-0.5625-0.78125-1.375-1.1719-2.4375-1.1719zm0-3.5c2.6328 0 4.6914 0.71484 6.1719 2.1406 1.4766 1.418 2.2188 3.3867 2.2188 5.9062 0 2.5117-0.74219 4.4805-2.2188 5.9062-1.4805 1.418-3.5391 2.125-6.1719 2.125-2.6484 0-4.7148-0.70703-6.2031-2.125-1.4922-1.4258-2.2344-3.3945-2.2344-5.9062 0-2.5195 0.74219-4.4883 2.2344-5.9062 1.4883-1.4258 3.5547-2.1406 6.2031-2.1406z"/>
  </symbol>
  <symbol id="q" overflow="visible">
   <path d="m17.75-9.3281v9.3281h-4.9219v-7.1094c0-1.3438-0.03125-2.2656-0.09375-2.7656s-0.16797-0.86719-0.3125-1.1094c-0.1875-0.3125-0.44922-0.55469-0.78125-0.73438-0.32422-0.17578-0.69531-0.26562-1.1094-0.26562-1.0234 0-1.8242 0.39844-2.4062 1.1875-0.58594 0.78125-0.875 1.8711-0.875 3.2656v7.5312h-4.8906v-21.281h4.8906v8.2031c0.73828-0.88281 1.5195-1.5391 2.3438-1.9688 0.83203-0.42578 1.75-0.64062 2.75-0.64062 1.7695 0 3.1133 0.54688 4.0312 1.6406 0.91406 1.0859 1.375 2.6562 1.375 4.7188z"/>
  </symbol>
  <symbol id="p" overflow="visible">
   <path d="m2.5781-20.406h5.875l7.4219 14v-14h4.9844v20.406h-5.875l-7.4219-14v14h-4.9844z"/>
  </symbol>
  <symbol id="o" overflow="visible">
   <path d="m2.1875-5.9688v-9.3438h4.9219v1.5312c0 0.83594-0.007813 1.875-0.015625 3.125-0.011719 1.25-0.015625 2.0859-0.015625 2.5 0 1.2422 0.03125 2.1328 0.09375 2.6719 0.070313 0.54297 0.17969 0.93359 0.32812 1.1719 0.20703 0.32422 0.47266 0.57422 0.79688 0.75 0.32031 0.16797 0.69141 0.25 1.1094 0.25 1.0195 0 1.8203-0.39062 2.4062-1.1719 0.58203-0.78125 0.875-1.8672 0.875-3.2656v-7.5625h4.8906v15.312h-4.8906v-2.2188c-0.74219 0.89844-1.5234 1.5586-2.3438 1.9844-0.82422 0.41406-1.7344 0.625-2.7344 0.625-1.7617 0-3.1055-0.53906-4.0312-1.625-0.92969-1.082-1.3906-2.6602-1.3906-4.7344z"/>
  </symbol>
  <symbol id="n" overflow="visible">
   <path d="m17.75-9.3281v9.3281h-4.9219v-7.1406c0-1.3203-0.03125-2.2344-0.09375-2.7344s-0.16797-0.86719-0.3125-1.1094c-0.1875-0.3125-0.44922-0.55469-0.78125-0.73438-0.32422-0.17578-0.69531-0.26562-1.1094-0.26562-1.0234 0-1.8242 0.39844-2.4062 1.1875-0.58594 0.78125-0.875 1.8711-0.875 3.2656v7.5312h-4.8906v-15.312h4.8906v2.2344c0.73828-0.88281 1.5195-1.5391 2.3438-1.9688 0.83203-0.42578 1.75-0.64062 2.75-0.64062 1.7695 0 3.1133 0.54688 4.0312 1.6406 0.91406 1.0859 1.375 2.6562 1.375 4.7188z"/>
  </symbol>
  <symbol id="m" overflow="visible">
   <path d="m2.5781-20.406h8.7344c2.5938 0 4.582 0.57812 5.9688 1.7344 1.3945 1.1484 2.0938 2.7891 2.0938 4.9219 0 2.1367-0.69922 3.7812-2.0938 4.9375-1.3867 1.1562-3.375 1.7344-5.9688 1.7344h-3.4844v7.0781h-5.25zm5.25 3.8125v5.7031h2.9219c1.0195 0 1.8047-0.25 2.3594-0.75 0.5625-0.5 0.84375-1.2031 0.84375-2.1094 0-0.91406-0.28125-1.6172-0.84375-2.1094-0.55469-0.48828-1.3398-0.73438-2.3594-0.73438z"/>
  </symbol>
  <symbol id="l" overflow="visible">
   <path d="m2.3594-15.312h4.8906v15.031c0 2.0508-0.49609 3.6172-1.4844 4.7031-0.98047 1.082-2.4062 1.625-4.2812 1.625h-2.4219v-3.2188h0.85938c0.92578 0 1.5625-0.21094 1.9062-0.625 0.35156-0.41797 0.53125-1.2461 0.53125-2.4844zm0-5.9688h4.8906v4h-4.8906z"/>
  </symbol>
  <symbol id="k" overflow="visible">
   <path d="m14.719-14.828v3.9844c-0.65625-0.45703-1.3242-0.79688-2-1.0156-0.66797-0.21875-1.3594-0.32812-2.0781-0.32812-1.3672 0-2.4336 0.40234-3.2031 1.2031-0.76172 0.79297-1.1406 1.9062-1.1406 3.3438 0 1.4297 0.37891 2.543 1.1406 3.3438 0.76953 0.79297 1.8359 1.1875 3.2031 1.1875 0.75781 0 1.4844-0.10938 2.1719-0.32812 0.6875-0.22656 1.3203-0.56641 1.9062-1.0156v4c-0.76172 0.28125-1.5391 0.48828-2.3281 0.625-0.78125 0.14453-1.5742 0.21875-2.375 0.21875-2.7617 0-4.9219-0.70703-6.4844-2.125-1.5547-1.4141-2.3281-3.3828-2.3281-5.9062 0-2.5312 0.77344-4.5039 2.3281-5.9219 1.5625-1.4141 3.7227-2.125 6.4844-2.125 0.80078 0 1.5938 0.074219 2.375 0.21875 0.78125 0.13672 1.5547 0.35156 2.3281 0.64062z"/>
  </symbol>
 </defs>
 <g>
  <path d="m135.64 368.9c3.1289 0 14.934-23.699 20.984-39.172 9.7031-25.008 17.328-39.25 30.199-56.438 6.5586-8.7266 22.023-25.801 24.59-27.621 0.21875 0.67578 0.58203 2.3477 0.94141 4.9062 1.7305 13.559 7.9727 35.621 13.652 48.184 7.1016 15.812 16.441 31.605 24.988 42.246 4.1094 5.0625 16.055 17.297 20.188 20.43 5.1172 4.0039 14.969 9.7734 29.277 17.148 28.023 14.43 36.02 20.363 47.531 35.23 7.3125 9.5312 13.273 16.23 21.242 23.891 12.266 11.91 18.156 15.562 39.402 24.426 5.668 2.3867 14.453 6.0469 21.816 9.1094l5.8672 2.4453c34.73 14.527 42.379 18.02 51.195 23.367 7.8633 4.8398 17.359 13.539 21.617 19.82 2.6133 3.8594 5.3828 10.039 5.3828 12.02 0 1.4492 0.44141 2.4883 1.3203 3.0781 0.57812 0.39062 1.3281 0.58984 2.2891 0.58984 1.7539 0 4.2109-0.66016 7.5664-2.0039 13.742-5.5039 22.355-13.367 30.727-28.039 3.7969-6.6367 6.0273-12.312 8.8359-22.52 4.7305-17.09 6.7031-33.164 6.2148-50.695-0.35938-11.336-0.37109-11.555-3.4453-23.609-1.8242-7.1836-3.0586-13.172-3.0586-14.246 0-1.2383 0.54297-5.3555 1.2031-9.1719 6.3633-36.43 7.5898-47.512 6.9219-62.402-1.0352-25.082-5.0664-37.922-16.598-52.852l-3.8594-5.0898-0.11719-13.836c-0.11719-14.867-0.80469-24.605-2.3594-33.605-2.168-12.887-8.5078-31.328-14.746-42.902-6.8281-12.621-17.711-28.352-27.082-39.156l-5.5625-6.4414-1.418-8.5664c-4.6992-28.746-11.441-43.004-28.852-61.02-6.8438-7.0859-16.367-14.234-24.281-18.223-6.1328-3.0625-18.426-7.2227-26.309-8.8945-6.8867-1.5234-9.0312-1.6367-22.68-1.8203-8.8125-0.10547-19.738 0.12891-25.922 0.60547-12.297 0.90234-17.035 1.9375-23.031 5.0586-9.0898 4.7617-14.035 11.367-16.531 22.094-2.3125 9.9922-2.4766 13.781-1.0312 23.855 0.75781 5.0898 2.1328 11.73 3.1484 15.121 7.6836 26.195 9.8438 35.207 10.512 43.812 0.35937 4.9961-0.37891 12.465-1.6641 16.648-0.53906 1.8086-0.52734 1.8203-1.8633 1.5391-1.0625-0.25391-2.4766-0.49219-3.0977-0.55469-0.57031-0.039062-1.1211-1.0117-2.0391-3.5938-2.5664-7.5664-15.141-33.047-19.797-40.09-8.4844-12.867-21.609-24.82-34.273-31.18-2.1328-1.0977-7.9805-3.3281-13.016-4.9688-8.9609-3.0078-9.457-3.1016-17.969-3.3438-9.9102-0.34766-16.457 0.30078-25.137 2.5469-6.2227 1.6445-16.352 5.668-19.035 7.5664-0.74609 0.58203-5.2812 2.9414-10.797 5.5938-14.488 7.0352-20.457 10.496-25.562 14.816-10.344 8.7188-15.488 17.555-21.18 36.379-2.3984 8.0859-2.4883 8.3984-2.5469 18.328-0.0625 11.258 0.51953 14.223 4.4414 22.68 4.3164 9.4375 7.4609 11.691 16.793 12.062l1.1914 0.050782c4.8945 0.21094 5.125 0.10547 15.859-5.8242l2.1992-1.2148c6.043-3.2773 12.531-5.9414 14.246-6.1211 0.14062 0.23438 0.38672 0.86328 0.51953 1.7578 0.25781 1.3555 1.1133 5.0625 1.9375 8.2148 1.3047 5.1797 2.6992 17.238 4.1328 35.836l0.39062 4.8672-4.1289 3.0586c-2.5156 1.7812-9.1328 7.8555-14.758 13.539-21.117 21.113-34.781 42.531-58.48 91.684-2.8047 5.7891-5.4648 11.402-5.7969 12.195-0.72656 1.8945 0.86719 7.2461 2.6875 10.293 4.4102 7.5234 5.3008 8.1211 6.0117 8.1211zm47.723-194.7c1.3555-5.9062 3.1797-8.8555 6.4961-10.512 1.5898-0.76562 2.6953-1.1367 3.7695-1.1367 0.93359 0 1.8438 0.28516 3.0352 0.83984 1.0938 0.51562 2.3125 1.6758 2.7656 2.4375 0.85156 1.3672 2.582 7.6836 2.7383 9.5352-0.30859 0.22266-1.2695 0.67578-2.582 1.0039-3.1484 0.80078-13.562 5.9375-18.57 9.1523-0.90625 0.55859-1.5234 0.89453-1.9492 1.0938 1.1914-1.8164 3.1914-7.5586 4.2969-12.414zm19.902-16.254c8.5508-2.5938 15.266-3.7109 28.707-4.7891 21.469-1.7422 50.008-0.37891 69.41 3.2969 2.3008 0.44922 3.8867 0.32422 4.7422-0.37891 0.44141-0.36328 0.67578-0.88672 0.67578-1.4961 0-0.8125 0-2.957-23.352-5.8516-16.453-2.043-49.027-1.5586-64.547 0.96484-13.203 2.1406-28.461 7.4375-33.312 11.559-3.0391 2.5469-4.7773 6.0977-6.8594 14.066-2.1797 8.1719-3.875 11.574-6.3008 12.566-2.0312 0.88672-6.5859 0.42969-9.5273-0.95312-2.7734-1.3281-6.1484-6.5859-8.1992-12.797-1.5508-4.543-1.5977-5.4531-1.6562-16.066v-11.066l3.7344-3.4453c14.84-13.473 39.977-23.527 62.539-25.008 7.1914-0.42188 12.297-0.28516 24.891 0.66016 17.859 1.3906 29.578 4.3945 46.453 11.93 11.336 5.0508 21.973 10.836 27.094 14.738 4.0156 3.0703 19.281 18.512 21.422 21.312-0.46094 0.14062-1.2891 0.33203-2.4453 0.49219-1.6875 0.23438-6.1719 1.1641-10.16 2.1797-19.48 4.75-37.09 13.316-49.578 24.125-2.3594 1.9805-5.3359 3.6836-9.1211 5.207-18.129 7.4609-35.855 23.727-48.652 44.637-1.2656 2.082-2.3672 3.6562-3 4.4414-0.375-2.1953-1.1211-8.9375-2.1016-20.508-3.1797-38.633-3.8008-43.176-7.3633-53.988-2.3477-7.2812-3.7305-10.07-6.4531-12.977l-1.4688-1.5117zm47.301-80.613c7.1406 0.18359 10.824 0.55469 14.078 1.4219 7.6211 1.9648 17.723 6.4336 24.02 10.633 11.66 7.7266 25.133 22.988 30.684 34.742 1.4844 3.0195 3.8086 7.5 5.1406 9.7891 2.4883 4.168 7.7656 15.656 9.5742 20.836l0.23047 0.66016-3.1484-3.3359c-5.8125-6.1211-12.074-11.258-18.105-14.84-3.7539-2.25-4.5117-2.9102-11.762-12.609-12.102-16.219-18.996-21.941-35.117-29.18-8.1758-3.625-12.387-5.0586-21.461-7.3125-6.2891-1.5586-7.2734-1.7031-21.32-1.7031-5.2305 0-9.6133-0.023438-12.105-0.054688 3.3555-1.4688 10.246-4.2266 14.156-5.5312 8.8164-3.0938 13.992-3.8281 25.137-3.5156zm-18.508 13.535c11.555 1.0078 21.852 3.8711 33.395 9.2773 9.4648 4.4336 14.723 8.0352 20.844 14.273 4.2188 4.2188 10.5 12.137 12.344 15.035-0.33594-0.14453-0.72656-0.32422-1.1719-0.51953l-5.4414-2.4258c-9.2852-4.0938-24.27-8.8203-31.426-9.9102-16.109-2.5352-35.094-3.4258-46.188-2.168-12.875 1.5195-28.66 5.9883-39.297 11.121-6.3711 3.1523-13.816 7.8633-18.105 11.445l-0.24609 0.21094c-0.42578 0.35156-0.85156 0.71875-1.1914 0.98437 0.375-1.2383 1.4609-3.8867 2.9297-7.4922l0.41016-1.0039c6.6484-16.23 15.047-24.91 32.094-33.168 8.5859-4.1055 18.676-6.1367 30.637-6.1367 3.3242 0.007813 6.793 0.16406 10.414 0.47656zm270.29 385.11c0.41016 5.3984 0.89453 14.324 1.082 19.902l0.35938 8.5977-3.3438-3.0195c-5.957-5.3633-11.508-8.9102-21.969-14.051l-8.4766-4.1836-0.0625-21.195c0-21.18-0.44922-28.621-2.8281-46.832-2.4648-18.57-2.5859-22.988-0.75781-27.836 2.5039-6.875 8.2812-18.957 12.355-25.844 1.707-2.8906 3.1484-5.1406 3.8125-6.1055 0.54688 0.90234 1.9258 3.3164 5.3828 9.7539 2.9336 5.5156 7.1953 14.191 9.4922 19.344 4.2188 9.3477 12.492 30.051 13.203 32.77 0.25391 0.96484-0.125 2.2852-1.3398 4.7227-5.8906 11.742-8.4141 31.414-6.9102 53.977zm-44.867-56.102c0.69531-4.3516 2.5664-12.762 3.5859-16.613 0.32031 2.1445 0.8125 5.6719 1.3281 9.6836 0.87891 6.6992 1.8242 15.348 2.168 19.234 0.77344 8.4297 1.7539 43.359 1.3203 47.312-0.0625 0.57812-0.17188 1.6445-0.29297 1.7969-0.015626 0.003907-0.125 0.015626-0.55859-0.11328-3.0977-0.90234-4.543-2.207-5.1523-4.6602-1.3594-5.1523-2.6562-13.188-3.3594-20.965-0.75781-9.2031-0.26562-27.543 0.96094-35.676zm-146.1-49.473c2.043-3.9258 5.875-10.836 8.5898-15.629 6.5625-11.555 14.852-27.848 19.285-37.902 1.2109-2.7344 2.2344-4.8672 2.9414-6.2109-0.15234 2.0234-0.48828 5.5312-1.0078 10.074-1.9492 17.703-4.6914 30.391-9.4766 43.805-2.1211 5.9531-7.1562 19.227-8.0742 21.312-0.52734-0.14453-1.8047-0.73437-3.5664-1.8086-2.2383-1.3438-6.0195-3.4336-8.4688-4.5938l-4-1.9727zm-51.227-41.93c6.8555-12.023 12.449-20.668 22.176-34.254 8.5625-11.945 16.297-20.008 27.574-28.773 3.3281-2.5977 6.4023-4.9883 7.6758-5.75-1.4844 4.5547-14.324 30.605-25.848 51.805-2.7891 5.1758-7.957 13.793-11.531 19.215-3.3164 5.0352-7.7852 11.906-9.8711 15.172l-3.4375 5.3555-3.0078-2.6445c-2.0391-1.7305-3.8711-3.5156-4.2383-4.0469-0.52734-0.75-2.3398-2.9297-3.1016-3.8359l-2.0273-2.4062zm11.484 24.328c0.54688-0.89062 2.6445-4.2109 5.3203-8.4609l4.7891-7.5977c25.973-41.145 37.543-65.52 47.602-100.34 4.4844-15.406 7.0742-25.855 10.242-41.391 2.0781-10.5 2.3359-12.059 1.7188-12.812-0.30859-0.375-0.75-0.375-0.94141-0.375-1.7344 0-1.875 0-10.898 37.438-1.4766 6.1602-3.9492 15.82-5.5273 21.348l-0.29688 1.0547c-2.7891 9.9961-2.7891 9.9961-14.371 18.922l-1.2656 0.96875c-13.949 10.785-23.402 20.758-33.699 35.57-4.6758 6.7656-17.551 28.102-20.562 34.066-0.87891 1.7695-1.6367 3.125-2.0391 3.793-1.9375-2.418-10.129-15.305-14.055-22.586-2.4453-4.4023-5.7695-11.066-7.4492-14.699-3.6016-7.9727-3.8477-10.754-1.6523-18.574 3.0234-10.871 14-34.699 19.902-43.223 1.6641-2.4023 3.6133-5.3438 4.1211-6.3047 1.7852-3.2891 12.719-17.871 16.469-21.98 4.3906-4.8594 11.484-10.625 21.078-17.121 13.004-8.8125 25.328-14.027 41.211-17.434 8.6953-1.8984 10.02-1.8984 12.863 0.035156h0.003906c5.4805 3.6797 6.9648 6.082 9.3398 15.141 3.0625 11.844 4.0703 42.875 1.8555 57.25-4.6992 31.207-11.324 52.617-23.66 76.371-1.0938 2.1094-26.414 51.031-27.242 53.602-0.72656-0.21094-2.7422-1.1797-5.4141-2.457-7.4102-3.5234-18.301-10.086-24.277-14.621l-4.5234-3.4844zm-51.262-102.73c9.7656-16.246 15.77-23.031 32.121-36.32 5.1523-4.1562 9.8633-7.3594 12.219-8.5898-0.68359 0.87891-1.7461 2.1562-3.1133 3.6914l-0.003906 0.003906c-9.7656 11.227-18.395 24.406-25.66 39.172-5.543 11.148-8.8125 19.176-10.93 26.828-0.63672 2.4258-1.1914 4.3125-1.5234 5.3555-0.85547-2.3125-2.6992-8.7305-4.5469-16.711l-1.8125-7.9688zm340.77 137.61-0.15625 1.0039-1.4297-1.8555c-9.6953-12.887-26.203-27.547-40.129-35.656-1.457-0.84375-2.625-1.5586-3.4141-2.0625 0.95312 0.11719 2.6211 0.41406 5.5391 1.1016 6.4922 1.5898 14.719 4.8594 20.008 7.9453 9.0312 5.125 21.352 14.684 21.98 16.297-0.32031 1.3398-1.9492 10.309-2.3984 13.227zm-233.41-1.0195c2.207-3.7969 7.7461-18.414 10.215-26.957 5.7305-19.488 7.4922-29.863 8.5664-50.438 0.47656-9.2617 0.75781-11.16 2.3203-15.605 2.6836-7.6289 7.7617-27.113 9.0508-34.754 2.3242-13.484 3.6797-37.023 2.9531-51.398-0.33203-6.6797-1.7852-17.941-2.8672-22.52 3.9648 3.4648 18.027 18.168 26.066 27.836 6.2812 7.6445 9.3125 11.621 9.5352 12.195 0.22266 0.53125 0.74609 4.625 1.2266 10.539 0.59766 7.4375 0.59766 11.676 0 20.621-0.85547 13.07-2.1172 25.859-3.0625 31.109-2.2227 12.102-8.418 31.316-17.898 55.562-5.5117 13.957-8.043 21.891-12.297 38.586-2.5273 10.113-5.9141 28.93-5.9141 34.316 0 0.050781 0 0.13281-0.003906 0.23047-0.73828-0.77344-2.207-2.6562-3.6289-4.4805-6.4688-8.3008-12.906-14.777-19.129-19.254-0.82812-0.59375-4.7227-3.3594-5.8633-3.9883 0.046875-0.23828 0.22656-0.75391 0.73047-1.6016zm37.121-0.14453c5.5234-21.707 8.3281-30.238 15.02-45.645 5.0859-11.703 13.098-35.582 14.785-44.043 3.2266-16.75 4.8203-33.258 4.8828-50.473 0.0625-6.6523-0.089843-13.121-0.33203-14.797 0.94531 1.1094 2.8281 3.4141 4.8008 5.9297 7.3477 9.4023 17.309 22.754 23.688 31.754l6.0547 8.5352 0.41016 6.2227c0.24609 3.7188 0.16797 9.918-0.17969 14.422-0.73828 9-5.0273 33.027-8.0547 45.109l-1.832 7.375-4.7695 5.0078c-4.5742 4.8281-7.918 9.6367-11.172 16.09-2.0664 4.1992-7.7266 20.68-9.3672 27.797-3.5625 15.008-6.4531 35.102-6.4531 44.781 0 2.6758-0.11328 4.5312-0.21094 5.3867-0.98047-0.56641-3.168-1.9375-5.7734-3.6914-4.5039-2.9961-8.7734-6.7422-16.348-14.312-10.246-10.188-10.246-10.277-10.246-12.543 0-5.2656 3.0977-25.25 5.0977-32.906zm37.855 15.344c3.6719-14.996 11.492-32.57 18.188-40.887 0.375-0.47656 0.71875-0.875 1.0078-1.1992-0.33203 1.4062-0.93359 3.7852-1.8047 6.9609-10.457 37.168-13.316 52.129-13.316 69.598 0.0625 6.5234 0.73828 15.309 1.5117 19.602 0.10156 0.51562 0.20312 1.0547 0.23047 1.3594-0.15625-0.039062-0.35156-0.10156-0.47656-0.13281-0.69922-0.21875-3.4336-1.3203-6.5-2.6328-4.8164-2.0273-4.8164-2.0273-5.1445-4.1445-0.89844-5.4219 2.8789-34.438 6.3047-48.523zm9.0391 27.629c0.54688-14.543 1.4453-19.242 8.7695-45.668 2.6328-9.4805 11.129-44.262 12.285-50.293 4.918-25.508 5.7773-31.852 5.7773-42.41 0-2.6641 0.054687-4.5703 0.11719-5.6836 1.1016 1.5117 3.3203 4.7227 5.957 8.6953 9.9844 14.984 18.582 28.578 27.059 42.766l7.7344 12.863-0.89062 1.9375c-0.30078 0.60938-1.8945 3.7734-3.293 6.1758-6.9258 12.285-15.07 31.293-18.531 43.266-6.6484 22.961-7 54.828-0.83984 75.777 0.035156 0.11719 0.050781 0.21875 0.054687 0.29297-1.082-0.36328-5.1133-1.9531-10.309-4.1602-5.4375-2.3008-14.566-6.082-20.945-8.7266-6.5078-2.7656-10.852-4.8477-11.273-5.2461-1.0508-1.3594-2.1094-16.906-1.6719-29.586zm96.934 8.1836c1.3945-5.5273 3.4766-10.926 4.4297-12.461 0.55469 1.2695 1.7812 4.5039 3.1016 8.4102 10.277 30.402 13.453 57.395 9.1953 78.055l-0.27344 1.2422c-1.0312 4.7227-1.1094 5.1055-0.72656 5.5547 0.24609 0.28516 0.58203 0.27344 0.80469 0.26172l0.14062-0.003907c0.51953 0 1.8984 0 4.2773-10.309 1.0117-4.5859 1.2812-7.3711 1.2148-18.234 0-8.7539-0.29688-14.539-0.96875-18.738-1.3008-8.3945-5-24.852-7.1133-32.445-0.86719-3.0586-1.3477-5.3086-1.457-6.2109 2.3242 0.69922 12.898 7.2344 19.996 12.941 7.4688 5.9883 17.457 18.898 20.164 26.059l1.1367 3.0117-1.5117 5.0586c-4.6641 16.152-12.363 29.645-21.684 38.012-5.0391 4.5547-18.07 10.902-20.371 10.488-0.26172-0.16797-1.1328-1.5273-1.9531-3.9375-1.7852-5.0508-3.8789-8.9492-7-13.027l-2.1836-2.9297-0.71875-21.246c-1-28.883-0.625-41.383 1.5-49.551zm11.023-10.812c-0.21094-0.44922-1.7188-5.8125-3.6797-13.535-3.8086-14.621-5.4375-19.512-10.914-32.688-4.8945-11.738-10.594-23.453-16.039-32.984l-0.25781-0.44141c-2.3633-4.082-3.8242-6.6133-4.2188-7.6055 0.09375 0.027344 0.19141 0.054688 0.27344 0.078125 0.76562 0.23438 5.7188 2.1953 10.719 4.3164 15.746 6.6992 26.305 12.969 38.98 23.152 10.617 8.5664 22.43 21.438 25.793 28.117 0.60938 1.1016 2.25 6.7266 3.7422 12.801 2.2188 8.8047 2.7031 12.309 3.0586 18.367 0.57812 11.789-1.0312 34.367-2.8555 40.977-0.35938-0.45312-0.98047-1.3555-1.875-2.9961-3.1133-5.8086-6.9141-10.684-13.574-17.398-6.9609-7.0156-14.086-12.219-22.406-16.352-4.0078-2.0859-6.4844-3.5469-6.7461-3.8086zm41.77-59.484c-14.18-12.902-33.207-21.863-48.48-22.832-4.5312-0.29688-6.0664-0.69922-10.949-2.9023-2.9609-1.3164-8.3047-3.5117-11.766-4.7695l-1.0039-0.36328c-8.2539-3.0195-8.2539-3.0195-10.992-7.9336l-0.22266-0.41016c-5.0273-9.1289-29.848-48.242-41.492-65.398-1.1797-1.7344-2.7227-4-3.2266-4.9961 0.56641 0.125 1.7188 0.36328 3.1289 0.66016l3.8477 0.80469c2.9844 0.6875 8.5586 1.7852 13.621 2.7734 26.051 5.0273 61.188 20.883 83.539 37.688 12.777 9.5977 24.199 21.23 29.098 29.625 2.4531 4.207 2.6094 6.4727 1.1875 17.336-0.84375 6.7578-3.0312 20.457-3.5781 22.898-0.33203-0.16406-1.0977-0.65625-2.7109-2.1797zm-67.945-97.719c-0.16797-0.0625-0.33984-0.125-0.5-0.18359 4.4414 0.71875 12.887 2.4453 18.391 3.9609 12.902 3.5625 27.41 10.77 38.812 19.293 5.8008 4.2773 7.2344 4.8047 8.1016 4.3672 0.28125-0.14062 0.60547-0.46484 0.60547-1.2031 0-1.668-11.07-9.918-15.59-12.926-10.121-6.7031-28.055-13.957-41.715-16.867-3.4062-0.73828-9.1094-1.3828-14.547-1.6406-7.5078-0.24219-9.3906-0.62109-16.594-2.625-11.988-3.4141-24.426-6.3242-33.273-7.7773-2.8906-0.48828-5.4414-0.94531-6.8164-1.1914-0.38672-0.074219-0.63672-0.11719-0.80469-0.14453-1.3164-2.1602-9.7773-13.855-15.68-21.734-6.7539-9.0039-10.762-14.398-12.266-16.48-1.8555-2.5703-4.9492-6.6367-6.7656-8.9336-1.2227-1.5-2.2305-2.8047-2.8047-3.5742h0.50391c5.3242 0 24.785 0.79688 29.422 1.3477 12.879 1.6172 31.91 6.0977 43.332 10.203 8.8945 3.1484 14.52 5.8203 31.691 15.07 30.844 16.613 47.887 29.27 56.98 42.312 10.238 14.648 13.871 26.555 14.945 48.996l0.32422 6.5352-2.8008-3.8789c-7.707-10.707-18.586-21.062-30.656-29.141-17.672-11.82-32.691-20.258-42.297-23.785zm53.805-12.645c-6.7461-6.3242-10.414-9.3125-18.715-15.215-12.859-9.1211-19.68-13.121-36.484-21.41-33.359-16.496-59.109-22.926-91.836-22.926h-11.906l-7.8945-9.0156c-8.5859-9.793-18.297-19.395-23.078-22.832l-2.0312-1.4727 1.4492-0.62891c7.0859-3.0625 23.277-6.4727 36.109-7.5977 8.1406-0.70703 20.652-0.72656 29.086-0.0625 9.2109 0.80078 18.984 2.1797 25.512 3.6016l4.9492 1.0547 5.6016 5.5391c7.5898 7.4648 18.559 15.176 31.723 22.301 14.297 7.707 25.973 14.43 32.031 18.453 5.2656 3.4883 15.281 12.309 21.5 18.93 4.3164 4.4844 4.3164 4.4844 4.7891 21.18l0.32422 11.133zm-3.6953-37.336c-9.7734-10.684-20.48-17.988-52.074-35.5-5.9414-3.2969-13.473-7.9023-16.801-10.258-4.4648-3.1758-10.512-8.4766-12.719-10.793 1.7734 0.57813 5.0195 1.6016 8.3047 2.6328 12.645 4.0938 20.137 7.125 29.707 12.008 15.566 7.9062 24.949 14.758 37.168 27.156l7.6992 7.8164 0.6875 3.8516c0.45312 2.8789 0.71875 4.9727 0.71875 5.7695 0 0.035156 0 0.085937 0.003906 0.14062-0.60156-0.55078-1.6602-1.707-2.6953-2.8242zm-8.7461-22.648c-8.0547-7.9414-11.395-10.902-18.016-15.23-13.406-8.8945-23.406-13.621-41.176-19.441-17.422-5.6836-36.73-9.7734-52.961-11.219-1.9727-0.19531-4.2344-0.42188-5.8242-0.59375 3.7812-0.81641 12.492-2.043 20.254-2.6836 5.9531-0.49219 21.707-0.35156 27.648 0.24219 23.633 2.3242 42.547 9.3984 59.535 22.277 8.9102 6.8047 9.0156 6.9336 12.039 13.859 3.4219 7.8867 4.9766 12.309 6.1641 17.527 0.26953 1.2031 0.55469 2.4141 0.77734 3.3359-1.5039-1.3438-4.4492-4.125-8.4414-8.0742zm-7.2461-29.035c-10.746-9.2969-28.934-17.98-45.258-21.605-10.852-2.3672-24.625-3.6953-36.805-3.6953-4.4922 0-8.7578 0.17969-12.594 0.55469-8.1211 0.77344-22.82 3.7031-29.133 5.8086-2.1328 0.72656-5.8594 1.5234-8.3008 1.7734-14.957 1.3945-40.312 7.2969-43.742 10.168-0.078125 0.0625-0.57812 0.11719-1.4336-0.27344-0.93359-0.42188-1.4453-0.97266-1.457-1.1211 0.16406-0.91406 5.0078-7.2617 8.6914-10.953 6.6523-6.832 23.445-18.336 35.23-24.141 8.1016-3.9648 16.57-6.6641 26.633-8.4961 7.3359-1.3203 19.312-2.2695 24.23-1.9219 1.0469 0.078125 3.2305 0.19531 5.7305 0.33594l4.8047 0.26953h0.003906c11.039 0.54297 19.141 2.2969 29.914 6.457 14.223 5.543 19.059 9.9336 32.297 29.34 3.1367 4.6367 6.9258 10.176 8.4336 12.344 1.9648 2.8164 3.3359 4.9492 4.1484 6.3281-0.41016-0.33203-0.87891-0.72266-1.3945-1.1719zm-36.641-48.098c-8.3555-4.1758-17.277-7.168-26.504-8.8945-3.9375-0.76172-9.3672-1.0352-20.746-1.0352h-1.3398c-28.621 0-43.113 3.8711-63.824 16.879l-3.4648 2.1719 0.58203-1.0625c3.1211-5.7578 11.027-15.5 18.008-22.191 14.93-14.379 25.777-20.145 46.43-24.645 5.0469-1.0938 8.4297-1.3711 18.059-1.4883 10.176-0.09375 11.961-0.13281 12.371-0.18359l0.42969-0.011719 0.10547-0.42969c0.074219-0.29297 0.14453-0.62109-1.7539-1.5664-1.3164-0.72656-4.3164-1.0859-11.082-1.332-7.5156-0.28516-10.332-0.13281-16.723 0.96875-18.559 3.168-32.133 9.0156-44.016 18.961-10.992 9.2852-24.09 25.16-28.598 34.664-2.0625 4.2852-2.6758 5.0352-6.5859 8.0469-2.582 2.0039-6.6602 5.6992-9.082 8.2383-0.62891 0.65625-2.25 2.3281-3.207 3.1523 0.63672-3.7344 0.27344-14.707-0.77344-21.684-1.293-8.3281-1.0469-12.789 1.1875-20.758 2.6875-9.3789 9.375-22.152 15.539-29.707 6.3438-7.7773 18.043-17.965 25.555-22.254 2.7266-1.5977 8.668-4.2109 14.773-6.5195 7.0273-2.5859 16.504-4.0195 25.273-4.0195 3.8594 0 7.5898 0.28125 10.902 0.86328 5.8906 1.043 14.203 3.6641 18.945 5.9688 4.6992 2.1719 13.613 11.535 19.867 20.867 3.1641 4.7266 8.7148 15.902 10.227 20.625 2.4766 7.6172 6.418 25.148 6.6914 29.652-0.70703-0.20313-2.5312-0.91406-7.2461-3.2773zm-41.387-76.402c-7.9062-2.2188-17.137-3.1758-24.695-2.5469-12.32 1.0977-25.949 5.3984-36.461 11.508-9.8242 5.7578-21.297 16.301-29.23 26.867-0.57812 0.77734-1.7656 2.3984-2.4453 3.0898 0.089844-1.125 0.64453-3.6172 0.91406-4.8047 1.9609-8.8477 6.1562-16.918 12.812-24.668 4.8555-5.5703 10.863-10.023 22.176-16.43 6.3672-3.5781 10.527-5.1289 15.98-5.1289 3.0898 0 6.5898 0.5 11.137 1.3984 4.3633 0.88672 10.578 2.582 13.836 3.6523 4.5938 1.5352 12.945 5.2539 17.07 7.332-0.33203-0.078125-0.69531-0.16797-1.0938-0.26953zm-61.477-9.4141c-14.055 6.9375-22.77 15.488-29.141 28.598-3.5508 7.2305-5.2734 13.227-6.3711 22.141-0.4375 3.4219-1.4102 7.5391-2.3125 9.793-0.875 2.2188-2.5664 7.3125-3.6836 11.363l-1.5352 5.3242-1.1211-3.5352c-5.7109-17.961-7.4531-25.535-8.1016-35.246-0.82812-13.602 3.1289-25.574 10.586-32.039 3.2773-2.8125 7.7617-5.3867 11.426-6.5703 3.3594-1.1016 19.332-2.4414 30.52-2.5586l5.3711-0.039063zm78.719 283.09c8.5781 14 22.305 39.016 27.707 50.496 5.4648 11.621 11.145 25.402 14.117 33.566-0.10547-0.25781-0.21094-0.52734-0.33203-0.80078-10.602-26.219-21.746-47.344-42.59-80.723-9.8008-15.715-30.57-46.816-40.402-60.512-12.344-17.168-34.234-44.805-46.848-59.137-7.9688-9.0547-25.723-26.258-31.148-30.172-4.1172-2.9844-4.6094-3.5625-5.8867-6.8594-0.54297-1.3203-1.0234-2.4883-1.1016-2.9531 0.11328-0.003907 0.25391-0.003907 0.34766-0.003907 0.45312 0 2.2227 0.71094 3.9688 1.8359h0.003906c11.68 7.3359 25.066 20.164 42.117 40.387 5.8633 6.9844 32.637 43.133 42.758 57.73 9.6641 14.102 29.527 44.543 37.289 57.145zm-336.56 36.27 1.1602-2.7031c6.2109-14.402 29.309-58.391 35.816-68.215 10.422-15.781 25.613-33.242 37.812-43.449l5.3438-4.4531 0.85547 6.6641-1.7852 1.3672h-0.003906c-5.8789 4.5469-19.629 19.602-27.242 29.836-10.41 13.984-19.645 30.742-26.008 47.191-10.438 26.762-18.723 42.234-20.707 43.223-0.37891-0.46094-1.3828-2.0508-2.7656-4.7031z"/>
  <use x="70" y="644" xlink:href="#u"/>
  <use x="90.550781" y="644" xlink:href="#c"/>
  <use x="104.359375" y="644" xlink:href="#a"/>
  <use x="123.347656" y="644" xlink:href="#f"/>
  <use x="142.242188" y="644" xlink:href="#b"/>
  <use x="155.628906" y="644" xlink:href="#a"/>
  <use x="174.617188" y="644" xlink:href="#j"/>
  <use x="204.410156" y="644" xlink:href="#i"/>
  <use x="224.453125" y="644" xlink:href="#e"/>
  <use x="252.453125" y="644" xlink:href="#h"/>
  <use x="270.292969" y="644" xlink:href="#f"/>
  <use x="289.1875" y="644" xlink:href="#e"/>
  <use x="307.4375" y="644" xlink:href="#g"/>
  <use x="336.617188" y="644" xlink:href="#t"/>
  <use x="346.210938" y="644" xlink:href="#s"/>
  <use x="70" y="672" xlink:href="#r"/>
  <use x="82.183594" y="672" xlink:href="#c"/>
  <use x="95.992188" y="672" xlink:href="#d"/>
  <use x="115.226562" y="672" xlink:href="#g"/>
  <use x="154.152344" y="672" xlink:href="#b"/>
  <use x="167.535156" y="672" xlink:href="#q"/>
  <use x="187.46875" y="672" xlink:href="#a"/>
  <use x="216.207031" y="672" xlink:href="#p"/>
  <use x="239.640625" y="672" xlink:href="#d"/>
  <use x="258.878906" y="672" xlink:href="#o"/>
  <use x="278.8125" y="672" xlink:href="#n"/>
  <use x="308.492188" y="672" xlink:href="#m"/>
  <use x="329.015625" y="672" xlink:href="#c"/>
  <use x="342.820312" y="672" xlink:href="#d"/>
  <use x="362.058594" y="672" xlink:href="#l"/>
  <use x="371.65625" y="672" xlink:href="#a"/>
  <use x="390.648438" y="672" xlink:href="#k"/>
  <use x="407.242188" y="672" xlink:href="#b"/>
 </g>
</svg>
